<mxfile host="app.diagrams.net" modified="2023-10-29T15:56:12.157Z" agent="Mozilla/5.0 (Windows NT 10.0; Win64; x64) AppleWebKit/537.36 (KHTML, like Gecko) Chrome/118.0.0.0 Safari/537.36" etag="xb4vjG0CRBg-XOSgP9zS" version="22.0.8" type="device">
  <diagram name="Page-1" id="b5b7bab2-c9e2-2cf4-8b2a-24fd1a2a6d21">
    <mxGraphModel dx="2950" dy="2309" grid="0" gridSize="10" guides="1" tooltips="1" connect="1" arrows="1" fold="1" page="1" pageScale="1" pageWidth="827" pageHeight="1169" background="none" math="0" shadow="0">
      <root>
        <mxCell id="0" />
        <mxCell id="1" parent="0" />
        <mxCell id="GNjQJB3ZmKTFabC5UJAe-1" value="&lt;div style=&quot;&quot;&gt;&lt;span style=&quot;font-size: 16px; background-color: initial;&quot;&gt;Обработка пользовательских событий&amp;nbsp;&lt;/span&gt;&lt;/div&gt;&lt;div style=&quot;&quot;&gt;&lt;span style=&quot;font-size: 16px; background-color: initial;&quot;&gt;&lt;span style=&quot;white-space: pre;&quot;&gt;&#x9;&lt;/span&gt;&lt;span style=&quot;white-space: pre;&quot;&gt;&#x9;&lt;/span&gt;&lt;span style=&quot;white-space: pre;&quot;&gt;&#x9;&lt;/span&gt;&lt;span style=&quot;white-space: pre;&quot;&gt;&#x9;&lt;/span&gt;&amp;nbsp; &amp;nbsp; 1&lt;/span&gt;&lt;/div&gt;" style="rounded=0;whiteSpace=wrap;html=1;align=center;verticalAlign=bottom;" parent="1" vertex="1">
          <mxGeometry x="128" y="130" width="189" height="88" as="geometry" />
        </mxCell>
        <mxCell id="GNjQJB3ZmKTFabC5UJAe-2" value="&lt;div style=&quot;&quot;&gt;&lt;span style=&quot;font-size: 16px; background-color: initial;&quot;&gt;Проверка введенных данных&lt;/span&gt;&lt;/div&gt;&lt;div style=&quot;&quot;&gt;&lt;span style=&quot;background-color: initial; font-size: 16px;&quot;&gt;&amp;nbsp;&lt;/span&gt;&lt;/div&gt;&lt;div style=&quot;&quot;&gt;&lt;span style=&quot;font-size: 16px; background-color: initial;&quot;&gt;&lt;span style=&quot;white-space: pre;&quot;&gt;&#x9;&lt;/span&gt;&lt;span style=&quot;white-space: pre;&quot;&gt;&#x9;&lt;/span&gt;&lt;span style=&quot;white-space: pre;&quot;&gt;&#x9;&lt;/span&gt;&lt;span style=&quot;white-space: pre;&quot;&gt;&#x9;&lt;/span&gt;&amp;nbsp; &amp;nbsp; 2&lt;/span&gt;&lt;/div&gt;" style="rounded=0;whiteSpace=wrap;html=1;align=center;verticalAlign=bottom;" parent="1" vertex="1">
          <mxGeometry x="379" y="266" width="189" height="88" as="geometry" />
        </mxCell>
        <mxCell id="GNjQJB3ZmKTFabC5UJAe-3" value="&lt;div style=&quot;&quot;&gt;&lt;span style=&quot;font-size: 16px;&quot;&gt;Загрузка необходимых данных&lt;/span&gt;&lt;/div&gt;&lt;div style=&quot;&quot;&gt;&lt;span style=&quot;background-color: initial; font-size: 16px;&quot;&gt;&amp;nbsp;&lt;/span&gt;&lt;/div&gt;&lt;div style=&quot;&quot;&gt;&lt;span style=&quot;font-size: 16px; background-color: initial;&quot;&gt;&lt;span style=&quot;white-space: pre;&quot;&gt;&#x9;&lt;/span&gt;&lt;span style=&quot;white-space: pre;&quot;&gt;&#x9;&lt;/span&gt;&lt;span style=&quot;white-space: pre;&quot;&gt;&#x9;&lt;/span&gt;&lt;span style=&quot;white-space: pre;&quot;&gt;&#x9;&lt;/span&gt;&amp;nbsp; &amp;nbsp; 3&lt;/span&gt;&lt;/div&gt;" style="rounded=0;whiteSpace=wrap;html=1;align=center;verticalAlign=bottom;" parent="1" vertex="1">
          <mxGeometry x="630" y="431" width="189" height="88" as="geometry" />
        </mxCell>
        <mxCell id="GNjQJB3ZmKTFabC5UJAe-5" value="&lt;div style=&quot;&quot;&gt;&lt;span style=&quot;font-size: 16px;&quot;&gt;Обработка данных&lt;/span&gt;&lt;/div&gt;&lt;div style=&quot;&quot;&gt;&lt;span style=&quot;background-color: initial; font-size: 16px;&quot;&gt;&amp;nbsp;&lt;/span&gt;&lt;/div&gt;&lt;div style=&quot;&quot;&gt;&lt;span style=&quot;font-size: 16px; background-color: initial;&quot;&gt;&lt;span style=&quot;white-space: pre;&quot;&gt;&#x9;&lt;/span&gt;&lt;span style=&quot;white-space: pre;&quot;&gt;&#x9;&lt;/span&gt;&lt;span style=&quot;white-space: pre;&quot;&gt;&#x9;&lt;/span&gt;&lt;span style=&quot;white-space: pre;&quot;&gt;&#x9;&lt;/span&gt;&amp;nbsp; &amp;nbsp; 4&lt;/span&gt;&lt;/div&gt;" style="rounded=0;whiteSpace=wrap;html=1;align=center;verticalAlign=bottom;" parent="1" vertex="1">
          <mxGeometry x="954" y="576" width="189" height="88" as="geometry" />
        </mxCell>
        <mxCell id="GNjQJB3ZmKTFabC5UJAe-6" value="&lt;div style=&quot;&quot;&gt;&lt;span style=&quot;font-size: 16px;&quot;&gt;Сохранение результатов&lt;/span&gt;&lt;/div&gt;&lt;div style=&quot;&quot;&gt;&lt;span style=&quot;background-color: initial; font-size: 16px;&quot;&gt;&amp;nbsp;&lt;/span&gt;&lt;/div&gt;&lt;div style=&quot;&quot;&gt;&lt;span style=&quot;font-size: 16px; background-color: initial;&quot;&gt;&lt;span style=&quot;white-space: pre;&quot;&gt;&#x9;&lt;/span&gt;&lt;span style=&quot;white-space: pre;&quot;&gt;&#x9;&lt;/span&gt;&lt;span style=&quot;white-space: pre;&quot;&gt;&#x9;&lt;/span&gt;&lt;span style=&quot;white-space: pre;&quot;&gt;&#x9;&lt;/span&gt;&amp;nbsp; &amp;nbsp; 5&lt;/span&gt;&lt;/div&gt;" style="rounded=0;whiteSpace=wrap;html=1;align=center;verticalAlign=bottom;" parent="1" vertex="1">
          <mxGeometry x="1241" y="684" width="189" height="88" as="geometry" />
        </mxCell>
        <mxCell id="GNjQJB3ZmKTFabC5UJAe-7" value="" style="endArrow=classic;html=1;rounded=0;entryX=0;entryY=0.5;entryDx=0;entryDy=0;" parent="1" target="GNjQJB3ZmKTFabC5UJAe-1" edge="1">
          <mxGeometry width="50" height="50" relative="1" as="geometry">
            <mxPoint x="-30" y="174" as="sourcePoint" />
            <mxPoint x="73" y="152" as="targetPoint" />
          </mxGeometry>
        </mxCell>
        <mxCell id="GNjQJB3ZmKTFabC5UJAe-8" value="&lt;span style=&quot;font-size: 16px;&quot;&gt;Пользовательские&lt;br&gt;события&lt;br&gt;&lt;/span&gt;" style="text;html=1;align=center;verticalAlign=middle;resizable=0;points=[];autosize=1;strokeColor=none;fillColor=none;" parent="1" vertex="1">
          <mxGeometry x="-35" y="120" width="155" height="50" as="geometry" />
        </mxCell>
        <mxCell id="GNjQJB3ZmKTFabC5UJAe-10" value="" style="endArrow=classic;html=1;rounded=0;entryX=0.25;entryY=1;entryDx=0;entryDy=0;" parent="1" target="GNjQJB3ZmKTFabC5UJAe-1" edge="1">
          <mxGeometry width="50" height="50" relative="1" as="geometry">
            <mxPoint x="175" y="555" as="sourcePoint" />
            <mxPoint x="222" y="352" as="targetPoint" />
          </mxGeometry>
        </mxCell>
        <mxCell id="GNjQJB3ZmKTFabC5UJAe-11" value="&lt;span style=&quot;font-size: 16px;&quot;&gt;Правила&lt;br&gt;графического&lt;br&gt;интерфейса&lt;br&gt;&lt;/span&gt;" style="text;html=1;align=center;verticalAlign=middle;resizable=0;points=[];autosize=1;strokeColor=none;fillColor=none;" parent="1" vertex="1">
          <mxGeometry x="36" y="338" width="119" height="70" as="geometry" />
        </mxCell>
        <mxCell id="GNjQJB3ZmKTFabC5UJAe-12" value="" style="endArrow=classic;html=1;rounded=0;exitX=1;exitY=0.25;exitDx=0;exitDy=0;" parent="1" source="GNjQJB3ZmKTFabC5UJAe-1" edge="1">
          <mxGeometry width="50" height="50" relative="1" as="geometry">
            <mxPoint x="384" y="87" as="sourcePoint" />
            <mxPoint x="538" y="152" as="targetPoint" />
          </mxGeometry>
        </mxCell>
        <mxCell id="GNjQJB3ZmKTFabC5UJAe-13" value="&lt;span style=&quot;font-size: 16px;&quot;&gt;Новое состояние&lt;br&gt;графического&lt;br&gt;интерфейса&lt;br&gt;&lt;/span&gt;" style="text;html=1;align=center;verticalAlign=middle;resizable=0;points=[];autosize=1;strokeColor=none;fillColor=none;" parent="1" vertex="1">
          <mxGeometry x="334" y="92" width="145" height="70" as="geometry" />
        </mxCell>
        <mxCell id="GNjQJB3ZmKTFabC5UJAe-14" value="" style="endArrow=classic;html=1;rounded=0;entryX=0.25;entryY=0;entryDx=0;entryDy=0;" parent="1" target="GNjQJB3ZmKTFabC5UJAe-1" edge="1">
          <mxGeometry width="50" height="50" relative="1" as="geometry">
            <mxPoint x="175" y="1" as="sourcePoint" />
            <mxPoint x="193" y="25" as="targetPoint" />
          </mxGeometry>
        </mxCell>
        <mxCell id="GNjQJB3ZmKTFabC5UJAe-16" value="&lt;span style=&quot;font-size: 16px;&quot;&gt;Возможности&lt;br&gt;определенного&lt;br&gt;пользователя&lt;br&gt;&lt;/span&gt;" style="text;html=1;align=center;verticalAlign=middle;resizable=0;points=[];autosize=1;strokeColor=none;fillColor=none;" parent="1" vertex="1">
          <mxGeometry x="189" y="-14" width="130" height="70" as="geometry" />
        </mxCell>
        <mxCell id="GNjQJB3ZmKTFabC5UJAe-17" value="&lt;span style=&quot;font-size: 16px;&quot;&gt;Введенные &lt;br&gt;данные&lt;br&gt;&lt;/span&gt;" style="text;html=1;align=center;verticalAlign=middle;resizable=0;points=[];autosize=1;strokeColor=none;fillColor=none;" parent="1" vertex="1">
          <mxGeometry x="355.5" y="197" width="102" height="50" as="geometry" />
        </mxCell>
        <mxCell id="GNjQJB3ZmKTFabC5UJAe-18" value="" style="endArrow=classic;html=1;exitX=1;exitY=0.75;exitDx=0;exitDy=0;entryX=0;entryY=0.25;entryDx=0;entryDy=0;jumpStyle=none;rounded=0;" parent="1" source="GNjQJB3ZmKTFabC5UJAe-1" target="GNjQJB3ZmKTFabC5UJAe-2" edge="1">
          <mxGeometry width="50" height="50" relative="1" as="geometry">
            <mxPoint x="606" y="228" as="sourcePoint" />
            <mxPoint x="656" y="178" as="targetPoint" />
            <Array as="points">
              <mxPoint x="351" y="200" />
              <mxPoint x="351" y="288" />
            </Array>
          </mxGeometry>
        </mxCell>
        <mxCell id="GNjQJB3ZmKTFabC5UJAe-22" value="" style="endArrow=classic;html=1;rounded=0;exitX=1;exitY=0.25;exitDx=0;exitDy=0;" parent="1" source="GNjQJB3ZmKTFabC5UJAe-2" edge="1">
          <mxGeometry width="50" height="50" relative="1" as="geometry">
            <mxPoint x="583" y="284" as="sourcePoint" />
            <mxPoint x="804" y="288" as="targetPoint" />
          </mxGeometry>
        </mxCell>
        <mxCell id="GNjQJB3ZmKTFabC5UJAe-23" value="&lt;span style=&quot;font-size: 16px;&quot;&gt;Заключение о&lt;br&gt;корректности данных&lt;br&gt;&lt;/span&gt;" style="text;html=1;align=center;verticalAlign=middle;resizable=0;points=[];autosize=1;strokeColor=none;fillColor=none;" parent="1" vertex="1">
          <mxGeometry x="578" y="242" width="177" height="50" as="geometry" />
        </mxCell>
        <mxCell id="GNjQJB3ZmKTFabC5UJAe-29" value="" style="edgeStyle=orthogonalEdgeStyle;rounded=0;orthogonalLoop=1;jettySize=auto;html=1;" parent="1" edge="1">
          <mxGeometry relative="1" as="geometry">
            <mxPoint x="324" y="968" as="sourcePoint" />
            <mxPoint x="478" y="896" as="targetPoint" />
            <Array as="points">
              <mxPoint x="324" y="1052" />
              <mxPoint x="479" y="1052" />
            </Array>
          </mxGeometry>
        </mxCell>
        <mxCell id="GNjQJB3ZmKTFabC5UJAe-30" value="" style="edgeStyle=orthogonalEdgeStyle;rounded=0;orthogonalLoop=1;jettySize=auto;html=1;exitX=1;exitY=0.75;exitDx=0;exitDy=0;entryX=0;entryY=0.25;entryDx=0;entryDy=0;" parent="1" source="GNjQJB3ZmKTFabC5UJAe-2" target="GNjQJB3ZmKTFabC5UJAe-5" edge="1">
          <mxGeometry relative="1" as="geometry">
            <mxPoint x="1000" y="207.89" as="sourcePoint" />
            <mxPoint x="1154" y="135.89" as="targetPoint" />
            <Array as="points">
              <mxPoint x="568" y="316" />
              <mxPoint x="919" y="316" />
              <mxPoint x="919" y="598" />
            </Array>
          </mxGeometry>
        </mxCell>
        <mxCell id="GNjQJB3ZmKTFabC5UJAe-31" value="&lt;span style=&quot;font-size: 16px;&quot;&gt;Введенные &lt;br&gt;данные&lt;br&gt;&lt;/span&gt;" style="text;html=1;align=center;verticalAlign=middle;resizable=0;points=[];autosize=1;strokeColor=none;fillColor=none;" parent="1" vertex="1">
          <mxGeometry x="862" y="266" width="102" height="50" as="geometry" />
        </mxCell>
        <mxCell id="GNjQJB3ZmKTFabC5UJAe-32" value="" style="edgeStyle=orthogonalEdgeStyle;rounded=0;orthogonalLoop=1;jettySize=auto;html=1;entryX=0;entryY=0.25;entryDx=0;entryDy=0;exitX=1;exitY=0.75;exitDx=0;exitDy=0;" parent="1" source="GNjQJB3ZmKTFabC5UJAe-2" target="GNjQJB3ZmKTFabC5UJAe-3" edge="1">
          <mxGeometry relative="1" as="geometry">
            <mxPoint x="352" y="445.94" as="sourcePoint" />
            <mxPoint x="506" y="373.94" as="targetPoint" />
            <Array as="points">
              <mxPoint x="591" y="332" />
              <mxPoint x="591" y="453" />
            </Array>
          </mxGeometry>
        </mxCell>
        <mxCell id="GNjQJB3ZmKTFabC5UJAe-33" value="&lt;span style=&quot;font-size: 16px;&quot;&gt;Необходимые&lt;br&gt;для загрузки&lt;br&gt;данные&lt;br&gt;&lt;/span&gt;" style="text;html=1;align=center;verticalAlign=middle;resizable=0;points=[];autosize=1;strokeColor=none;fillColor=none;" parent="1" vertex="1">
          <mxGeometry x="593" y="358" width="122" height="70" as="geometry" />
        </mxCell>
        <mxCell id="GNjQJB3ZmKTFabC5UJAe-34" value="" style="edgeStyle=orthogonalEdgeStyle;rounded=0;orthogonalLoop=1;jettySize=auto;html=1;entryX=0;entryY=0.5;entryDx=0;entryDy=0;exitX=1;exitY=0.5;exitDx=0;exitDy=0;" parent="1" source="GNjQJB3ZmKTFabC5UJAe-3" target="GNjQJB3ZmKTFabC5UJAe-5" edge="1">
          <mxGeometry relative="1" as="geometry">
            <mxPoint x="564" y="697" as="sourcePoint" />
            <mxPoint x="718" y="625" as="targetPoint" />
            <Array as="points">
              <mxPoint x="860" y="475" />
              <mxPoint x="860" y="620" />
            </Array>
          </mxGeometry>
        </mxCell>
        <mxCell id="GNjQJB3ZmKTFabC5UJAe-35" value="&lt;span style=&quot;font-size: 16px;&quot;&gt;Необходимые&lt;br&gt;данные&lt;br&gt;&lt;/span&gt;" style="text;html=1;align=center;verticalAlign=middle;resizable=0;points=[];autosize=1;strokeColor=none;fillColor=none;" parent="1" vertex="1">
          <mxGeometry x="748" y="560" width="122" height="50" as="geometry" />
        </mxCell>
        <mxCell id="GNjQJB3ZmKTFabC5UJAe-36" value="" style="edgeStyle=orthogonalEdgeStyle;rounded=0;orthogonalLoop=1;jettySize=auto;html=1;entryX=0;entryY=0.5;entryDx=0;entryDy=0;exitX=1;exitY=0.5;exitDx=0;exitDy=0;" parent="1" source="GNjQJB3ZmKTFabC5UJAe-5" target="GNjQJB3ZmKTFabC5UJAe-6" edge="1">
          <mxGeometry relative="1" as="geometry">
            <mxPoint x="948" y="797" as="sourcePoint" />
            <mxPoint x="1102" y="725" as="targetPoint" />
            <Array as="points">
              <mxPoint x="1179" y="620" />
              <mxPoint x="1179" y="728" />
            </Array>
          </mxGeometry>
        </mxCell>
        <mxCell id="GNjQJB3ZmKTFabC5UJAe-37" value="&lt;span style=&quot;font-size: 16px;&quot;&gt;Результат&lt;br&gt;&lt;/span&gt;" style="text;html=1;align=center;verticalAlign=middle;resizable=0;points=[];autosize=1;strokeColor=none;fillColor=none;" parent="1" vertex="1">
          <mxGeometry x="1094" y="695" width="91" height="31" as="geometry" />
        </mxCell>
        <mxCell id="GNjQJB3ZmKTFabC5UJAe-38" value="" style="endArrow=classic;html=1;rounded=0;exitX=1;exitY=0.5;exitDx=0;exitDy=0;" parent="1" source="GNjQJB3ZmKTFabC5UJAe-6" edge="1">
          <mxGeometry width="50" height="50" relative="1" as="geometry">
            <mxPoint x="1585" y="813" as="sourcePoint" />
            <mxPoint x="1594" y="728" as="targetPoint" />
          </mxGeometry>
        </mxCell>
        <mxCell id="GNjQJB3ZmKTFabC5UJAe-39" value="&lt;span style=&quot;font-size: 16px;&quot;&gt;Результат&lt;br&gt;сохранения&lt;br&gt;&lt;/span&gt;" style="text;html=1;align=center;verticalAlign=middle;resizable=0;points=[];autosize=1;strokeColor=none;fillColor=none;" parent="1" vertex="1">
          <mxGeometry x="1446" y="684" width="105" height="50" as="geometry" />
        </mxCell>
        <mxCell id="GNjQJB3ZmKTFabC5UJAe-41" value="" style="endArrow=classic;html=1;rounded=0;entryX=0.25;entryY=1;entryDx=0;entryDy=0;" parent="1" target="GNjQJB3ZmKTFabC5UJAe-2" edge="1">
          <mxGeometry width="50" height="50" relative="1" as="geometry">
            <mxPoint x="426" y="546" as="sourcePoint" />
            <mxPoint x="412" y="373" as="targetPoint" />
          </mxGeometry>
        </mxCell>
        <mxCell id="GNjQJB3ZmKTFabC5UJAe-42" value="&lt;span style=&quot;font-size: 16px;&quot;&gt;Правила&lt;br&gt;ввода&lt;br&gt;данных&lt;br&gt;&lt;/span&gt;" style="text;html=1;align=center;verticalAlign=middle;resizable=0;points=[];autosize=1;strokeColor=none;fillColor=none;" parent="1" vertex="1">
          <mxGeometry x="346" y="402" width="83" height="70" as="geometry" />
        </mxCell>
        <mxCell id="GNjQJB3ZmKTFabC5UJAe-43" value="" style="endArrow=classic;html=1;rounded=0;entryX=0.25;entryY=1;entryDx=0;entryDy=0;" parent="1" target="GNjQJB3ZmKTFabC5UJAe-3" edge="1">
          <mxGeometry width="50" height="50" relative="1" as="geometry">
            <mxPoint x="677" y="638" as="sourcePoint" />
            <mxPoint x="662" y="529" as="targetPoint" />
          </mxGeometry>
        </mxCell>
        <mxCell id="GNjQJB3ZmKTFabC5UJAe-44" value="&lt;span style=&quot;font-size: 16px;&quot;&gt;Провайдер&lt;br&gt;данных&lt;br&gt;&lt;/span&gt;" style="text;html=1;align=center;verticalAlign=middle;resizable=0;points=[];autosize=1;strokeColor=none;fillColor=none;" parent="1" vertex="1">
          <mxGeometry x="581" y="548" width="101" height="50" as="geometry" />
        </mxCell>
        <mxCell id="GNjQJB3ZmKTFabC5UJAe-45" value="&lt;span style=&quot;font-size: 16px;&quot;&gt;Провайдер&lt;br&gt;данных&lt;br&gt;&lt;/span&gt;" style="text;html=1;align=center;verticalAlign=middle;resizable=0;points=[];autosize=1;strokeColor=none;fillColor=none;" parent="1" vertex="1">
          <mxGeometry x="1190" y="804" width="101" height="50" as="geometry" />
        </mxCell>
        <mxCell id="GNjQJB3ZmKTFabC5UJAe-46" value="" style="endArrow=classic;html=1;rounded=0;entryX=0.25;entryY=1;entryDx=0;entryDy=0;" parent="1" target="GNjQJB3ZmKTFabC5UJAe-6" edge="1">
          <mxGeometry width="50" height="50" relative="1" as="geometry">
            <mxPoint x="1287" y="896" as="sourcePoint" />
            <mxPoint x="1287" y="777" as="targetPoint" />
          </mxGeometry>
        </mxCell>
      </root>
    </mxGraphModel>
  </diagram>
</mxfile>
